<svg width="600" height="90" viewBox="0 0 600 90" fill="none" xmlns="http://www.w3.org/2000/svg">
    <style>
        g path { fill: #000 } @media (prefers-color-scheme:dark) { g path { fill: #fff } }
    </style>
    <path fill-rule="evenodd" clip-rule="evenodd" d="M80.7066 6.00037C83.1531 6.02867 85.2397 7.65774 85.6958 9.89573L97.0493 65.6272L102.425 55.881C103.306 54.2843 105.072 53.2803 107 53.2803H155.857C158.697 53.2803 161 55.4238 161 58.0681C161 60.7125 158.697 62.856 155.857 62.856H110.14L99.3606 82.3991C98.3575 84.218 96.2241 85.2431 94.0505 84.9506C91.8765 84.658 90.1424 83.113 89.7331 81.104L80.3212 34.9035L69.5988 81.2208C69.0958 83.394 67.0518 84.9587 64.664 84.9989C62.2763 85.0391 60.173 83.5434 59.5863 81.3884L51.2967 50.9476L45.9738 60.3084C45.0825 61.8754 43.3335 62.856 41.4286 62.856H13.1429C10.3025 62.856 8 60.7125 8 58.0681C8 55.4238 10.3025 53.2803 13.1429 53.2803H38.3322L48.4548 35.4795C49.4501 33.729 51.5001 32.7298 53.6121 32.9659C55.724 33.2014 57.4625 34.6234 57.9851 36.5429L64.1658 59.2388L75.6155 9.77915C76.1309 7.55241 78.26 5.97208 80.7066 6.00037Z" fill="url(#paint0_linear_3_15)"/>
    <defs>
        <linearGradient id="paint0_linear_3_15" x1="84.5" y1="5.99999" x2="84.5" y2="84.9999" gradientUnits="userSpaceOnUse">
            <stop stop-color="#F85A5A"/>
            <stop offset="0.828125" stop-color="#7A5AF8"/>
        </linearGradient>
    </defs>
</svg>